<?xml version="1.0" standalone="no"?>
<!DOCTYPE svg PUBLIC "-//W3C//DTD SVG 20010904//EN"
 "http://www.w3.org/TR/2001/REC-SVG-20010904/DTD/svg10.dtd">
<svg version="1.0" xmlns="http://www.w3.org/2000/svg"
 width="200.000000pt" height="200.000000pt" viewBox="0 0 200.000000 200.000000"
 preserveAspectRatio="xMidYMid meet">

<g transform="translate(0.000000,200.000000) scale(0.100000,-0.100000)"
fill="#BC4749" stroke="none">
<path d="M1140 1703 c-8 -3 -104 -77 -214 -164 l-199 -159 -131 -1 c-160 0
-196 -10 -213 -59 -15 -45 -17 -579 -3 -632 6 -21 19 -42 30 -48 10 -5 83 -10
162 -10 l143 0 213 -170 c117 -94 221 -170 232 -170 32 0 67 21 79 47 8 17 11
216 11 663 0 447 -3 646 -11 663 -16 36 -61 54 -99 40z m-60 -703 c0 -242 -2
-440 -5 -440 -4 0 -61 44 -128 98 -178 143 -154 132 -289 132 l-118 0 0 210 0
210 119 0 119 0 109 84 c59 47 124 98 143 115 19 17 38 30 43 31 4 0 7 -198 7
-440z"/>
<path d="M1367 1230 c-30 -24 -41 -63 -26 -93 6 -12 36 -48 67 -79 l56 -58
-56 -57 c-31 -32 -61 -68 -67 -80 -15 -30 -4 -69 26 -93 44 -34 69 -26 144 47
l69 66 69 -66 c79 -77 113 -86 156 -42 44 43 35 82 -39 162 l-65 70 65 64 c74
73 83 110 39 154 -43 43 -77 34 -154 -40 l-67 -65 -50 51 c-78 81 -120 96
-167 59z"/>
</g>
</svg>
